<svg width="53" height="54" viewBox="0 0 53 54" fill="none" xmlns="http://www.w3.org/2000/svg">
<path d="M52.0562 48.1939L40.5547 36.6875C44.0032 32.1937 45.6133 26.5563 45.0582 20.919C44.5031 15.2818 41.8245 10.0667 37.5658 6.33173C33.307 2.59676 27.787 0.621584 22.1255 0.806872C16.464 0.99216 11.0849 3.32404 7.07947 7.32947C3.07404 11.3349 0.74216 16.714 0.556872 22.3755C0.371584 28.037 2.34676 33.557 6.08173 37.8158C9.81669 42.0745 15.0318 44.7531 20.669 45.3082C26.3063 45.8633 31.9437 44.2532 36.4375 40.8047L47.9487 52.3183C48.219 52.5886 48.54 52.8031 48.8932 52.9494C49.2464 53.0957 49.625 53.171 50.0073 53.171C50.3896 53.171 50.7682 53.0957 51.1214 52.9494C51.4746 52.8031 51.7956 52.5886 52.0659 52.3183C52.3362 52.048 52.5507 51.727 52.697 51.3738C52.8433 51.0206 52.9186 50.642 52.9186 50.2597C52.9186 49.8774 52.8433 49.4988 52.697 49.1456C52.5507 48.7924 52.3362 48.4715 52.0659 48.2011L52.0562 48.1939ZM6.40628 23.125C6.40628 19.8678 7.37216 16.6838 9.18177 13.9755C10.9914 11.2672 13.5634 9.15637 16.5727 7.90989C19.582 6.66341 22.8933 6.33728 26.0879 6.97273C29.2826 7.60818 32.217 9.17667 34.5202 11.4799C36.8234 13.7831 38.3919 16.7175 39.0273 19.9121C39.6628 23.1068 39.3367 26.4181 38.0902 29.4274C36.8437 32.4366 34.7329 35.0087 32.0246 36.8183C29.3163 38.6279 26.1322 39.5938 22.875 39.5938C18.5086 39.5893 14.3223 37.8528 11.2348 34.7652C8.14731 31.6777 6.41077 27.4914 6.40628 23.125Z" fill="#BFC2D6"/>
</svg>
